<svg xmlns="http://www.w3.org/2000/svg" xmlns:xlink="http://www.w3.org/1999/xlink" xmlns:lucid="lucid" width="860" height="720"><g transform="translate(-640 -207.33333333333348)" lucid:page-tab-id="0_0"><path d="M900 366c0-3.3 2.7-6 6-6h328c3.3 0 6 2.7 6 6v188c0 3.3-2.7 6-6 6H906c-3.3 0-6-2.7-6-6z" stroke="#5e5e5e" stroke-width="3" fill-opacity="0"/><path d="M860 233.33c0-3.3 2.7-6 6-6h408c3.3 0 6 2.7 6 6v668c0 3.32-2.7 6-6 6H866c-3.3 0-6-2.68-6-6z" stroke="#232f3e" stroke-width="6" fill="#fff" fill-opacity="0"/><path d="M860 227.33h56v56h-56v-56z" stroke="#fff" stroke-opacity="0" fill="#232f3e"/><path d="M900.88 268.55h-25c-4.13.05-7.57-3.1-7.9-7.2v-.63c-.15-3.4 1.97-6.4 5.25-7.36v-.66c.12-4.22 2.44-7.76 6.24-9.58 4.12-1.84 8.73-.95 11.8 2.32 1.1 1.08 1.85 2.2 2.45 3.6 1.2-1 2.72-1.33 4.24-.9 2.24.8 3.68 2.74 3.76 5.08 3.68.66 6.32 3.8 6.28 7.57 0 7.06-7.04 7.72-7.12 7.75zm-26.7-13.87c-2.83.6-4.75 3.13-4.6 6.04v.52c.3 3.33 3.1 5.83 6.4 5.75h24.98c3.04-.3 5.4-2.64 5.68-5.7.28-3.43-2.24-6.5-5.68-6.78-.44-.06-.72-.45-.64-.87.08-1.85-1-3.46-2.72-4.14-1.32-.36-2.64.14-3.44 1.25-.2.23-.44.36-.76.3-.28-.04-.48-.23-.6-.5-.6-1.6-1.4-2.84-2.6-4.03-2.68-2.8-6.6-3.58-10.13-2-3.24 1.6-5.2 4.64-5.32 8.26-.04.4-.04.73 0 1.13.04.4-.2.78-.6.85z" stroke="#fff" stroke-opacity="0" fill="#fff"/><use xlink:href="#a" transform="matrix(1,0,0,1,931,247.33333333333348) translate(0 26.844444444444434)"/><use xlink:href="#b" transform="matrix(1,0,0,1,931,247.33333333333348) translate(9.320987654320984 26.844444444444434)"/><use xlink:href="#c" transform="matrix(1,0,0,1,931,247.33333333333348) translate(80.06728395061727 26.844444444444434)"/><path d="M860 227.33h67.25v67.25H860v-67.25z" stroke="#fff" stroke-opacity="0" stroke-width="2"/><path d="M875.02 259.2l1.7-.54 5.46 17.75-1.7.54-5.46-17.75z" stroke="#fff" stroke-opacity="0" stroke-width="1.91" fill="#fff"/><path d="M876.66 253.47l13.67-9.5 1 1.46-13.66 9.5-1-1.46z" stroke="#fff" stroke-opacity="0" stroke-width="1.64" fill="#fff"/><path d="M895.84 245.3l1-1.46 13.68 9.56-1.02 1.45-13.66-9.56z" stroke="#fff" stroke-opacity="0" stroke-width="1.15" fill="#fff"/><path d="M905.08 276.08l5.4-17.84 1.7.52-5.4 17.83-1.7-.52z" stroke="#fff" stroke-opacity="0" stroke-width=".58" fill="#fff"/><path d="M885.43 277.82h16.4v1.78h-16.4v-1.78zM893.63 246.82c-1.98 0-3.6-1.6-3.6-3.6 0-1.97 1.62-3.58 3.6-3.58 1.97 0 3.58 1.6 3.58 3.6 0 1.97-1.6 3.58-3.58 3.58zm0-5.46c-1.02 0-1.86.82-1.86 1.84s.84 1.85 1.86 1.85c1 0 1.85-.83 1.85-1.85s-.84-1.84-1.86-1.84z" stroke="#fff" stroke-opacity="0" stroke-width="2" fill="#fff"/><path d="M882.7 282.33c-2 0-3.6-1.6-3.6-3.58s1.6-3.6 3.6-3.6c1.97 0 3.58 1.62 3.58 3.6s-1.6 3.58-3.6 3.58zm0-5.45h-.06c-1.02.02-1.82.88-1.8 1.9.04 1.02.9 1.82 1.9 1.8 1.03-.05 1.83-.9 1.8-1.9-.02-1-.84-1.8-1.85-1.8zM904.56 282.33c-1.98 0-3.6-1.6-3.6-3.58s1.62-3.6 3.6-3.6 3.58 1.62 3.58 3.6-1.6 3.58-3.58 3.58zm0-5.45h-.07c-1.03.02-1.83.88-1.8 1.9.03 1.02.88 1.82 1.9 1.8 1.02-.05 1.82-.9 1.8-1.9-.03-1-.85-1.8-1.84-1.8zM875.2 259.8c-2 0-3.6-1.6-3.6-3.6 0-1.96 1.6-3.57 3.6-3.57 1.97 0 3.58 1.6 3.58 3.58 0 2-1.6 3.6-3.6 3.6zm0-5.47h-.06c-1.03 0-1.85.83-1.85 1.85s.8 1.84 1.83 1.84 1.85-.82 1.85-1.84c0-1-.8-1.82-1.8-1.85zM912.06 259.8c-1.98 0-3.6-1.6-3.6-3.6 0-1.96 1.62-3.57 3.6-3.57s3.6 1.6 3.6 3.58c0 2-1.62 3.6-3.6 3.6zm0-5.47c-1.02 0-1.85.83-1.85 1.85s.84 1.85 1.86 1.85 1.85-.83 1.85-1.85-.82-1.85-1.84-1.84zM892.74 245.93h1.77v4.78h-1.76v-4.77z" stroke="#fff" stroke-opacity="0" stroke-width="2" fill="#fff"/><path d="M877.57 258.35l.7-1.63 4.78 2.05-.7 1.63-4.78-2.05z" stroke="#fff" stroke-opacity="0" stroke-width=".79" fill="#fff"/><path d="M883.32 276.18l2.73-4.1 1.48 1-2.73 4.08-1.48-.98z" stroke="#fff" stroke-opacity="0" stroke-width="1.11" fill="#fff"/><path d="M899.72 273.07l1.47-1 2.72 4.1-1.47 1-2.73-4.1z" stroke="#fff" stroke-opacity="0" stroke-width="1.66" fill="#fff"/><path d="M904.2 258.77l4.78-2.05.7 1.63-4.78 2.05-.7-1.63z" stroke="#fff" stroke-opacity="0" stroke-width="1.84" fill="#fff"/><path d="M886.53 258.93c-.48 0-.86-.35-.9-.8l-.25-3.42 1.8-.12.17 2.52 2.5-.18.14 1.8-3.4.25z" stroke="#fff" stroke-opacity="0" stroke-width="2" fill="#fff"/><path d="M893.6 271.73c-5.02 0-9.12-4.06-9.16-9.1h1.8c0 2.4 1.03 4.45 2.98 5.88 3.27 2.46 7.9 1.78 10.35-1.5 2.44-3.3 1.76-7.93-1.5-10.37-3.3-2.44-7.93-1.76-10.37 1.53l-1.42-1.07c3.02-4.1 8.77-4.93 12.83-1.9 4.1 3.03 4.94 8.78 1.9 12.84-1.8 2.42-4.37 3.7-7.37 3.7z" stroke="#fff" stroke-opacity="0" stroke-width="2" fill="#fff"/><path d="M1216.44 743.84h-5.12v-21.4h-76.6v21.4h-5.1v-26.5h86.82v26.5zM1216.44 837.33h-86.83v-67.17h5.13v62.07h76.6v-62.07h5.1v67.17z" stroke="#fff" stroke-opacity="0"/><path d="M1141.78 731.7h62.5v5.1h-62.5v-5.1zM1142.1 746.06h62.17v5.1h-62.18v-5.1zM1141.78 760.43h62.5v5.1h-62.5v-5.1zM1141.78 774.78h62.5v5.1h-62.5v-5.1zM1141.78 789.15h62.5v5.1h-62.5v-5.1zM1141.78 803.5h62.5v5.1h-62.5v-5.1zM1141.78 817.88h62.5v5.1h-62.5v-5.1zM1122.56 770.3c-.4 0-.76-.07-1.13-.28-.88-.43-1.43-1.28-1.43-2.27v-21.53c0-1.42 1.15-2.56 2.56-2.56.6 0 1.08.16 1.55.5l14.44 10.77c.66.5 1 1.23 1 2.05 0 .83-.34 1.55-1 2.06l-14.43 10.77c-.46.35-.95.5-1.54.5zm2.56-19v11.36l7.7-5.68zM1223.5 770.3c-.6 0-1.1-.15-1.56-.5l-14.43-10.77c-.65-.5-1-1.2-1-2.06 0-.83.35-1.52 1-2.03l14.44-10.8c1.14-.86 2.74-.62 3.6.5.35.5.5.97.5 1.55v21.52c0 1.02-.54 1.84-1.42 2.3-.37.2-.72.3-1.13.3zm-10.26-13.33l7.7 5.68v-11.33z" stroke="#fff" stroke-opacity="0"/><path d="M1131.77 719.85h82.1V835h-82.1V719.85z" stroke="#fff" stroke-opacity="0" stroke-width=".34" fill="#fff" fill-opacity="0"/><use xlink:href="#d" transform="matrix(1,0,0,1,1090,846.3333333333335) translate(41.55555555555556 17.77777777777778)"/><use xlink:href="#e" transform="matrix(1,0,0,1,1090,846.3333333333335) translate(88.40740740740742 17.77777777777778)"/><path d="M1038.43 512.58h-95.9c-1.42 0-2.53-1.2-2.53-2.52V395.1c0-1.32 1.1-2.52 2.52-2.52h95.9c1.42 0 2.53 1.2 2.53 2.52v114.96c0 1.32-1.1 2.52-2.52 2.52zm-93.28-5.16h90.65V397.74h-90.65z" stroke="#fff" stroke-opacity="0"/><path d="M985.67 416.53h40.74v5.1h-40.73v-5.1zM985.67 454.83h40.74v5.1h-40.73v-5.1zM985.67 490.73h40.74v5.1h-40.73v-5.1zM961.73 424c-.73 0-1.3-.22-1.8-.73l-9.6-9.57 3.64-3.6 7.48 7.48 12.62-16.8 4.06 3.07L963.76 423c-.45.62-1.1.97-1.87 1zM961.73 462.3c-.73 0-1.3-.22-1.8-.73l-9.6-9.57 3.64-3.6 7.48 7.48 12.62-16.8 4.06 3.06-14.37 19.15c-.45.62-1.1.96-1.87 1zM961.73 500.6c-.73 0-1.3-.22-1.8-.73l-9.6-9.58 3.64-3.6 7.48 7.47 12.62-16.8 4.06 3.07-14.37 19.15c-.45.6-1.1.96-1.87 1z" stroke="#fff" stroke-opacity="0"/><use xlink:href="#f" transform="matrix(1,0,0,1,910,521.5833333333336) translate(11.611111111111114 17.77777777777778)"/><use xlink:href="#g" transform="matrix(1,0,0,1,910,521.5833333333336) translate(85.25308641975307 17.77777777777778)"/><path d="M673.88 744.9V730.4l-3.9 1.83v-1.82l4.1-2.32h2.26V745zM683.5 744.9L689 730h-7.5v-2.05h9.98v1.83l-5.45 15.13zM694.96 729.22c.73-.53 1.42-.9 2.28-1.2.76-.2 1.45-.3 2.25-.25 1.2-.08 2.26.33 3.1 1.2.84.95 1.2 2.05 1.13 3.3 0 .84-.15 1.55-.47 2.33-.5 1.1-1 2-1.73 2.97-.83 1.18-2.25 3-4.27 5.43h7.1v2.04h-9.8v-1.83c1.76-2.15 3.1-3.88 4.04-5.2.8-1.08 1.4-2.07 2-3.3.4-.77.6-1.54.6-2.42 0-1.7-.72-2.6-2.1-2.6-1.57.13-2.86.63-4.1 1.55zM708.63 745.14c-.44.03-.82-.1-1.13-.4-.3-.33-.46-.72-.44-1.16-.03-.84.62-1.54 1.46-1.57h.1c.45 0 .83.14 1.13.45.32.3.46.7.45 1.13.02.44-.13.83-.45 1.15-.3.3-.7.44-1.12.4zM717.8 744.9V730.4l-3.9 1.83v-1.82l4.1-2.32h2.26V745zM731.78 729.56c-1.15-.05-2.16.5-2.75 1.47-.75 1.48-1.1 2.9-1.05 4.56 1.08-.68 2.16-1 3.43-1 1.3-.04 2.43.46 3.23 1.46.88 1.07 1.28 2.25 1.2 3.64.08 1.52-.37 2.86-1.36 4.03-.98 1.05-2.23 1.56-3.66 1.5-1.65.13-3.14-.62-4.02-2.02-1.05-2-1.47-3.96-1.3-6.23-.17-2.52.33-4.7 1.56-6.9.97-1.56 2.58-2.4 4.42-2.3.65 0 1.2.08 1.8.23.6.13 1.06.3 1.6.58v1.8c-.52-.23-.97-.38-1.5-.5-.55-.16-1.02-.25-1.58-.32zm-1.05 7c-1.02 0-1.88.23-2.77.7v.18c-.1 1.6.1 2.95.67 4.44.4.9 1.23 1.43 2.2 1.42 1.65 0 2.47-1.16 2.47-3.45.07-.9-.15-1.7-.66-2.43-.47-.6-1.15-.9-1.9-.85zM739.87 745.14c-.44.03-.82-.1-1.13-.4-.3-.33-.46-.72-.44-1.16 0-.87.7-1.57 1.57-1.57.87 0 1.57.7 1.57 1.58.02.44-.13.83-.44 1.15-.32.3-.7.44-1.13.4zM749.17 745.23c-1.72.1-3.23-.75-4.06-2.25-1.1-2.12-1.53-4.18-1.4-6.56-.13-2.37.3-4.42 1.4-6.55.9-1.43 2.37-2.2 4.07-2.1 1.68-.06 3.15.77 3.98 2.24 1.1 2.13 1.53 4.2 1.4 6.56.13 2.38-.3 4.42-1.4 6.55-.85 1.45-2.32 2.22-3.98 2.13zm0-2c1 0 1.86-.64 2.14-1.62.6-1.75.8-3.34.7-5.2.1-1.86-.1-3.45-.7-5.22-.2-.75-.75-1.3-1.5-1.52-1.2-.35-2.46.33-2.8 1.52-.58 1.78-.8 3.36-.7 5.23-.1 1.86.12 3.45.7 5.2.28 1 1.14 1.64 2.17 1.64zM758.44 745.14c-.44.03-.82-.1-1.13-.4-.3-.33-.46-.72-.43-1.16 0-.87.7-1.57 1.57-1.57.86 0 1.57.7 1.57 1.58.03.44-.12.83-.44 1.15-.3.3-.7.44-1.12.4zM767.73 745.23c-1.7.07-3.18-.77-4-2.25-1.1-2.12-1.54-4.18-1.4-6.55-.14-2.38.3-4.42 1.4-6.55.86-1.42 2.33-2.2 4-2.12 1.7-.05 3.16.77 3.98 2.26 1.1 2.1 1.54 4.17 1.4 6.55.14 2.37-.3 4.4-1.4 6.55-.83 1.43-2.3 2.2-3.97 2.1zm0-2c1.02 0 1.87-.64 2.15-1.62.6-1.75.8-3.34.68-5.2.1-1.86-.1-3.45-.68-5.2-.23-.77-.77-1.3-1.52-1.53-1.2-.35-2.45.33-2.8 1.52-.57 1.75-.78 3.34-.7 5.2-.08 1.86.12 3.45.7 5.2.3 1 1.15 1.64 2.17 1.64zM673.88 784.98v-14.46l-3.9 1.86v-2l4.1-2.33h2.26v16.93zM683.5 784.98l5.52-14.9h-7.5v-2.03h9.98v1.8l-5.45 15.13zM694.96 769.3c.74-.53 1.43-.9 2.28-1.2.75-.27 1.44-.38 2.25-.36 1.2-.08 2.25.3 3.1 1.17.8.93 1.18 2 1.13 3.2 0 .85-.15 1.56-.47 2.33-.48 1.1-1 2-1.73 2.98-.83 1.18-2.25 3-4.27 5.47h7.1v2h-9.8v-1.82c1.76-2.17 3.1-3.9 4.04-5.23.8-1.02 1.4-1.95 2-3.1.4-.77.6-1.53.6-2.4 0-1.7-.72-2.6-2.1-2.6-1.57.15-2.86.63-4.1 1.55zM708.63 785.16c-.84.03-1.54-.63-1.57-1.46v-.1c-.02-.45.13-.83.44-1.15.3-.3.7-.45 1.13-.42.43-.03.82.1 1.12.42.32.32.47.7.45 1.14 0 .43-.13.8-.45 1.12-.3.3-.68.46-1.12.44zM717.8 784.98v-14.46l-3.9 1.86v-2l4.1-2.33h2.26v16.93zM731.78 769.66c-1.14-.07-2.16.46-2.75 1.44-.76 1.5-1.1 2.95-1.05 4.65 1.08-.7 2.16-1 3.43-1.02 1.27-.07 2.36.4 3.18 1.35.9 1.07 1.3 2.27 1.2 3.65.08 1.53-.37 2.86-1.35 4.02-.98 1.07-2.23 1.58-3.67 1.5-1.65.13-3.1-.6-4-1.97-1.03-2-1.45-3.95-1.3-6.22-.15-2.52.35-4.72 1.58-6.93.93-1.6 2.55-2.47 4.4-2.4.64 0 1.18.05 1.8.2.58.15 1.05.33 1.57.6v1.78c-.5-.22-.93-.36-1.48-.45-.53-.14-1-.2-1.54-.2zm-1.05 7c-1.02.02-1.87.23-2.78.67v.2c-.08 1.6.13 2.96.7 4.45.37.9 1.2 1.44 2.18 1.4 1.65 0 2.47-1.14 2.47-3.46.06-.9-.16-1.68-.65-2.43-.5-.6-1.15-.9-1.92-.84zM739.87 785.16c-.84.03-1.54-.62-1.57-1.46v-.1c-.02-.45.13-.83.44-1.15.66-.56 1.6-.56 2.25 0 .3.32.46.7.44 1.14.03.83-.63 1.53-1.46 1.56h-.1zM749.03 784.98v-14.46l-3.92 1.86v-2l4.12-2.33h2.25v16.93zM758.44 785.16c-.84.03-1.55-.62-1.58-1.46v-.1c0-.45.14-.83.45-1.15.66-.56 1.6-.56 2.26 0 .3.32.46.7.45 1.14.04.83-.62 1.53-1.46 1.56h-.1zM767.73 785.32c-1.7.05-3.18-.8-4-2.27-1.1-2.13-1.54-4.17-1.4-6.54-.13-2.4.3-4.43 1.4-6.55.83-1.46 2.3-2.3 4-2.22 1.7-.07 3.16.76 3.98 2.22 1.1 2.12 1.53 4.16 1.4 6.56.15 2.38-.3 4.44-1.4 6.57-.8 1.47-2.27 2.3-3.97 2.25zm0-2c1.02 0 1.86-.64 2.15-1.6.58-1.77.8-3.37.68-5.2.1-1.88-.1-3.48-.68-5.24-.22-.75-.77-1.3-1.52-1.5-1.2-.36-2.45.3-2.8 1.5-.57 1.78-.77 3.36-.7 5.23-.07 1.85.13 3.44.7 5.2.3 1 1.15 1.63 2.17 1.63zM673.88 827.47v-14.44l-3.9 1.8v-2l4.1-2.3h2.26v16.94zM683.5 827.47l5.52-14.92h-7.5v-2.03h9.98v1.83l-5.45 15.12zM694.96 811.8c.73-.53 1.42-.9 2.28-1.2.75-.28 1.44-.4 2.25-.4 1.2-.07 2.25.32 3.1 1.17.83.97 1.2 2.06 1.13 3.32 0 .83-.15 1.56-.47 2.34-.5 1.1-1 1.98-1.73 2.95-.83 1.18-2.25 2.98-4.27 5.43h7.1v2.04h-9.8v-1.83c1.76-2.2 3.1-3.9 4.04-5.22.8-1.03 1.4-1.98 2-3.14.4-.8.58-1.54.6-2.44 0-1.7-.72-2.6-2.1-2.6-1.57.15-2.86.63-4.1 1.57zM708.63 827.7c-.44.03-.82-.1-1.13-.4-.3-.33-.46-.7-.44-1.16-.03-.83.63-1.53 1.46-1.56h.1c.45-.02.83.13 1.13.44.32.3.46.7.45 1.12.02.45-.13.83-.45 1.15-.3.3-.7.44-1.12.4zM717.8 827.47v-14.44l-3.9 1.8v-2l4.1-2.3h2.26v16.94zM731.77 812.14c-1.15-.06-2.15.47-2.74 1.46-.77 1.5-1.1 2.95-1.05 4.64 1.08-.67 2.16-.98 3.43-1 1.26-.04 2.35.42 3.18 1.37.88 1.07 1.27 2.28 1.2 3.65.07 1.53-.37 2.87-1.36 4.05-.98 1.04-2.23 1.55-3.66 1.48-1.65.12-3.1-.62-4-2-1.03-2-1.45-3.97-1.3-6.24-.15-2.53.35-4.7 1.58-6.93.94-1.6 2.55-2.45 4.4-2.4.63 0 1.18.07 1.8.2.57.15 1.05.35 1.58.6v1.8c-.52-.22-.96-.37-1.5-.5-.53-.1-1-.16-1.55-.16zm-1.04 6.93c-1.02.02-1.87.23-2.78.68v.22c-.08 1.58.13 2.93.7 4.43.37.88 1.2 1.43 2.18 1.4 1.66 0 2.47-1.15 2.47-3.44.07-.9-.15-1.7-.66-2.43-.46-.6-1.15-.9-1.9-.86zM739.87 827.7c-.43.03-.82-.1-1.13-.4-.3-.33-.46-.7-.44-1.16 0-.86.7-1.56 1.57-1.56.87 0 1.57.7 1.57 1.56.02.45-.13.83-.45 1.15-.32.3-.7.43-1.13.4zM744.76 811.8c.74-.53 1.43-.9 2.3-1.2.74-.28 1.43-.4 2.24-.4 1.2-.07 2.26.32 3.1 1.17.84.97 1.22 2.06 1.14 3.32 0 .83-.16 1.56-.47 2.34-.5 1.1-1 1.98-1.73 2.95-.84 1.18-2.26 2.98-4.27 5.43h7.1v2.04h-9.8v-1.83c1.76-2.2 3.1-3.9 4.04-5.22.78-1.03 1.36-1.98 1.95-3.14.4-.8.58-1.54.6-2.44 0-1.7-.7-2.6-2.1-2.6-1.56.15-2.85.63-4.1 1.57zM758.44 827.7c-.44.03-.82-.1-1.13-.4-.3-.33-.45-.7-.44-1.16 0-.86.7-1.56 1.58-1.56.86 0 1.57.7 1.57 1.56.02.45-.13.83-.44 1.15-.3.3-.7.43-1.12.4zM767.73 827.8c-1.7.04-3.17-.78-4-2.25-1.08-2.1-1.52-4.13-1.4-6.48-.14-2.38.3-4.43 1.4-6.55.83-1.47 2.3-2.3 4-2.24 1.7-.05 3.16.77 3.98 2.24 1.1 2.12 1.54 4.17 1.4 6.55.14 2.38-.3 4.43-1.4 6.55-.83 1.45-2.3 2.24-3.97 2.17zm0-2c1.02 0 1.87-.64 2.15-1.62.6-1.77.8-3.36.68-5.22.1-1.85-.1-3.45-.68-5.2-.23-.77-.77-1.3-1.52-1.52-1.2-.35-2.45.3-2.8 1.5-.58 1.77-.78 3.37-.7 5.22-.08 1.86.13 3.45.7 5.22.3.98 1.15 1.63 2.17 1.63z" stroke="#fff" stroke-opacity="0"/><path d="M780.5 754.27H662.57c-1.35 0-2.58-1.18-2.58-2.62v-31.7c0-1.43 1.23-2.62 2.58-2.62h117.9c1.37 0 2.6 1.2 2.6 2.63v31.7c0 1.43-1.23 2.6-2.6 2.6zm-115.2-5.2h112.48v-26.53h-112.5zM780.5 795.83H662.57c-1.35 0-2.58-1.18-2.58-2.63v-31.74c0-1.44 1.23-2.62 2.58-2.62h117.9c1.37 0 2.6 1.18 2.6 2.62v31.74c0 1.45-1.23 2.63-2.6 2.63zm-115.2-5.22h112.48v-26.55h-112.5zM780.5 837.33H662.57c-1.35 0-2.58-1.18-2.58-2.62v-31.68c0-1.44 1.23-2.63 2.58-2.63h117.9c1.37 0 2.6 1.18 2.6 2.62v31.7c0 1.43-1.23 2.6-2.6 2.6zm-115.2-5.2h112.48V805.6h-112.5z" stroke="#fff" stroke-opacity="0"/><path d="M662.8 720.73h117.52v113.53H662.8V720.73z" stroke="#fff" stroke-opacity="0" stroke-width=".4" fill="#fff" fill-opacity="0"/><use xlink:href="#h" transform="matrix(1,0,0,1,630,846.3333333333335) translate(51.351851851851855 17.77777777777778)"/><path d="M922.67 717.33h120v120h-120v-120z" stroke="#fff" stroke-opacity="0" stroke-width="2"/><path d="M982.82 813.7c-6.4 0-11.78-1.38-17.4-4.52l1.58-2.76c10.76 5.9 22.8 5.53 33.23-.88 15.58-9.54 20.4-29.94 10.84-45.52l-1.6 8-3.15-.65 2.3-11.65c.15-.88 1.02-1.4 1.9-1.24l11.7 2.33-.63 3.22-7.85-1.6c10.45 17.1 5.07 39.47-12.02 49.96-6 3.65-11.94 5.32-18.9 5.32zm-27.68-13.98c-.16.07-.32.07-.4 0l-11.63-2.92.8-3.06 7.44 1.9c-10.12-17.34-4.27-39.56 13.05-49.68 11.38-6.63 24.2-6.78 35.75-.5l-1.58 2.83c-10.6-5.77-22.47-5.55-32.83.72-15.66 9.4-20.73 29.72-11.3 45.38l2.04-8.23 3.1.72-2.94 11.58c-.16.73-.8 1.24-1.5 1.24zm40.34-6.85c-2.93 0-5.46-1.97-6.17-4.8h-13.2c-.87 3.4-4.35 5.45-7.75 4.58-3.48-.87-5.54-4.37-4.67-7.8.8-2.84 3.24-4.8 6.25-4.8.55 0 1.1.07 1.66.22l6.72-11.6c-2.54-2.4-2.7-6.47-.24-9.02 2.45-2.55 6.5-2.7 9.02-.22 2.6 2.4 2.7 6.4.23 9.04l-.23.2 6.72 11.6c.55-.15 1.1-.22 1.66-.22 3.56 0 6.4 2.84 6.4 6.4 0 3.5-2.84 6.42-6.4 6.42zm0-9.62c-1.74 0-3.16 1.46-3.16 3.2 0 1.76 1.42 3.2 3.16 3.2 1.82 0 3.24-1.44 3.24-3.2 0-1.74-1.42-3.2-3.24-3.2zm-25.55 0c-1.82 0-3.24 1.46-3.24 3.2 0 1.76 1.4 3.2 3.23 3.2 1.74 0 3.17-1.44 3.17-3.2 0-1.74-1.43-3.2-3.17-3.2zm6.17 1.6h13.2c.33-1.16.88-2.1 1.75-2.98l-6.72-11.66c-1.1.3-2.14.3-3.25 0l-6.64 11.67c.87.87 1.34 1.82 1.66 3zm6.57-23.96c-1.74 0-3.17 1.37-3.17 3.12 0 1.82 1.43 3.2 3.17 3.2 1.82 0 3.24-1.38 3.24-3.2 0-1.75-1.4-3.13-3.23-3.13z" stroke="#fff" stroke-opacity="0" stroke-width="2" fill="#fff"/><use xlink:href="#i" transform="matrix(1,0,0,1,892.6666666666666,846.3333333333335) translate(34.475308641975296 17.77777777777778)"/><use xlink:href="#j" transform="matrix(1,0,0,1,892.6666666666666,846.3333333333335) translate(53.641975308641975 44.44444444444444)"/><path d="M904.16 777.33H801.58" stroke="#5e5e5e" stroke-width="2" fill="none"/><path d="M919.43 777.33l-14.27 4.64v-9.27zM786.3 777.33l14.28-4.63v9.27z" stroke="#5e5e5e" stroke-width="2" fill="#5e5e5e"/><path d="M1468.28 500.86h-96.56V404.3h96.56zm-91.53-5.02h86.5v-86.5h-86.5z" stroke="#fff" stroke-opacity="0"/><path d="M1385.53 392.58h5v14.23h-5V392.6zM1401.2 392.58h5v14.23h-5V392.6zM1416.9 392.58h5v14.23h-5V392.6zM1432.6 392.58h5v14.23h-5V392.6zM1448.3 392.58h5v14.23h-5V392.6zM1385.53 498.36h5v14.22h-5v-14.22zM1401.2 498.36h5v14.22h-5v-14.22zM1416.9 498.36h5v14.22h-5v-14.22zM1432.6 498.36h5v14.22h-5v-14.22zM1448.3 498.36h5v14.22h-5v-14.22zM1465.78 418.7H1480v5h-14.22v-5zM1465.78 434.38H1480v5h-14.22v-5zM1465.78 450.08H1480v5h-14.22v-5zM1465.78 465.78H1480v5h-14.22v-5zM1465.78 481.46H1480v5h-14.22v-5zM1360 418.7h14.22v5H1360v-5zM1360 434.38h14.22v5H1360v-5zM1360 450.08h14.22v5H1360v-5zM1360 465.78h14.22v5H1360v-5zM1360 481.46h14.22v5H1360v-5z" stroke="#fff" stroke-opacity="0"/><use xlink:href="#k" transform="matrix(1,0,0,1,1330,521.5833333333336) translate(46.2037037037037 17.77777777777778)"/><path d="M1217.02 453.58h20.75c.14 0 .25.12.25.25 0 .14.1.25.25.25h103.23" stroke="#5e5e5e" stroke-width="2" fill="none"/><path d="M1217.05 454.58h-1.03v-2h1.03z" fill="#5e5e5e"/><path d="M1356.76 454.08l-14.26 4.64v-9.27z" stroke="#5e5e5e" stroke-width="2" fill="#5e5e5e"/><path d="M1125.27 419.24h-26.66v-26.66h26.67zm-21.54-5.12h16.42V397.7h-16.42zM1125.27 450.34h-26.66V423.7h26.67zm-21.54-5.12h16.42v-16.4h-16.42zM1125.27 481.46h-26.66v-26.63h26.67zm-21.54-5.1h16.42v-16.42h-16.42zM1125.27 512.58h-26.66v-26.65h26.67zm-21.54-5.1h16.42v-16.43h-16.42zM1218.6 419.24h-88.86v-26.66h88.87zm-83.8-5.12h78.75V397.7h-78.75zM1218.6 450.34h-88.86V423.7h88.87zm-83.8-5.12h78.75v-16.4h-78.75zM1218.6 481.46h-88.86v-26.63h88.87zm-83.8-5.1h78.75v-16.42h-78.75zM1218.6 512.58h-88.86v-26.65h88.87zm-83.8-5.1h78.75v-16.43h-78.75z" stroke="#fff" stroke-opacity="0"/><path d="M1100.86 395h115.16V509.8h-115.16V395z" stroke="#fff" stroke-opacity="0" stroke-width=".4" fill="#fff" fill-opacity="0"/><use xlink:href="#l" transform="matrix(1,0,0,1,1068.6125,521.5833333333336) translate(20.33950617283952 17.77777777777778)"/><use xlink:href="#m" transform="matrix(1,0,0,1,1068.6125,521.5833333333336) translate(106.69753086419753 17.77777777777778)"/><path d="M1042.67 777.33h8.05m8.05 0h1.6m8.06 0h1.6m8.06 0h33.01M1043.67 762.33v30" stroke="#5e5e5e" stroke-width="2" fill="none"/><path d="M1126.37 777.33l-14.26 4.64v-9.27z" stroke="#5e5e5e" stroke-width="2" fill="#5e5e5e"/><path d="M1173.02 717.33v-8.47m0-8.48v-1.7m0-8.47v-1.7m0-8.47v-16.95m0-8.48v-1.7m0-8.47v-1.7m0-8.47V617.3m0-8.48v-1.7m0-8.47v-1.7m0-8.47V580M1158.02 716.33h30" stroke="#5e5e5e" stroke-width="2" fill="none"/><path d="M1173.02 564.74l4.64 14.26h-9.27z" stroke="#5e5e5e" stroke-width="2" fill="#5e5e5e"/><path d="M982.67 561.5v8.48m0 8.47v1.7m0 8.48v1.7m0 8.47v16.95m0 8.48v1.7m0 8.47v1.7m0 8.48v16.95m0 8.48v1.7m0 8.48v1.7m0 8.47v8.48M997.67 562.5h-30" stroke="#5e5e5e" stroke-width="2" fill="none"/><path d="M982.67 714.1l-4.64-14.27h9.27z" stroke="#5e5e5e" stroke-width="2" fill="#5e5e5e"/><defs><path fill="#232f3e" d="M233-177c-1 41-23 64-60 70L243 0h-38l-65-103H63V0H30v-248c88 3 205-21 203 71zM63-129c60-2 137 13 137-47 0-61-80-42-137-45v92" id="n"/><path fill="#232f3e" d="M141-36C126-15 110 5 73 4 37 3 15-17 15-53c-1-64 63-63 125-63 3-35-9-54-41-54-24 1-41 7-42 31l-33-3c5-37 33-52 76-52 45 0 72 20 72 64v82c-1 20 7 32 28 27v20c-31 9-61-2-59-35zM48-53c0 20 12 33 32 33 41-3 63-29 60-74-43 2-92-5-92 41" id="o"/><path fill="#232f3e" d="M101-234c-31-9-42 10-38 44h38v23H63V0H32v-167H5v-23h27c-7-52 17-82 69-68v24" id="p"/><path fill="#232f3e" d="M59-47c-2 24 18 29 38 22v24C64 9 27 4 27-40v-127H5v-23h24l9-43h21v43h35v23H59v120" id="q"/><g id="b"><use transform="matrix(0.09320987654320984,0,0,0.09320987654320984,0,0)" xlink:href="#n"/><use transform="matrix(0.09320987654320984,0,0,0.09320987654320984,24.141358024691346,0)" xlink:href="#o"/><use transform="matrix(0.09320987654320984,0,0,0.09320987654320984,42.78333333333332,0)" xlink:href="#p"/><use transform="matrix(0.09320987654320984,0,0,0.09320987654320984,52.10432098765431,0)" xlink:href="#q"/></g><path fill="#232f3e" d="M185-189c-5-48-123-54-124 2 14 75 158 14 163 119 3 78-121 87-175 55-17-10-28-26-33-46l33-7c5 56 141 63 141-1 0-78-155-14-162-118-5-82 145-84 179-34 5 7 8 16 11 25" id="r"/><path fill="#232f3e" d="M96-169c-40 0-48 33-48 73s9 75 48 75c24 0 41-14 43-38l32 2c-6 37-31 61-74 61-59 0-76-41-82-99-10-93 101-131 147-64 4 7 5 14 7 22l-32 3c-4-21-16-35-41-35" id="s"/><path fill="#232f3e" d="M106-169C34-169 62-67 57 0H25v-261h32l-1 103c12-21 28-36 61-36 89 0 53 116 60 194h-32v-121c2-32-8-49-39-48" id="t"/><path fill="#232f3e" d="M100-194c63 0 86 42 84 106H49c0 40 14 67 53 68 26 1 43-12 49-29l28 8c-11 28-37 45-77 45C44 4 14-33 15-96c1-61 26-98 85-98zm52 81c6-60-76-77-97-28-3 7-6 17-6 28h103" id="u"/><path fill="#232f3e" d="M85-194c31 0 48 13 60 33l-1-100h32l1 261h-30c-2-10 0-23-3-31C134-8 116 4 85 4 32 4 16-35 15-94c0-66 23-100 70-100zm9 24c-40 0-46 34-46 75 0 40 6 74 45 74 42 0 51-32 51-76 0-42-9-74-50-73" id="v"/><path fill="#232f3e" d="M84 4C-5 8 30-112 23-190h32v120c0 31 7 50 39 49 72-2 45-101 50-169h31l1 190h-30c-1-10 1-25-2-33-11 22-28 36-60 37" id="w"/><path fill="#232f3e" d="M24 0v-261h32V0H24" id="x"/><path fill="#232f3e" d="M114-163C36-179 61-72 57 0H25l-1-190h30c1 12-1 29 2 39 6-27 23-49 58-41v29" id="y"/><g id="c"><use transform="matrix(0.09320987654320984,0,0,0.09320987654320984,0,0)" xlink:href="#r"/><use transform="matrix(0.09320987654320984,0,0,0.09320987654320984,22.37037037037036,0)" xlink:href="#s"/><use transform="matrix(0.09320987654320984,0,0,0.09320987654320984,39.14814814814813,0)" xlink:href="#t"/><use transform="matrix(0.09320987654320984,0,0,0.09320987654320984,57.7901234567901,0)" xlink:href="#u"/><use transform="matrix(0.09320987654320984,0,0,0.09320987654320984,76.43209876543207,0)" xlink:href="#v"/><use transform="matrix(0.09320987654320984,0,0,0.09320987654320984,95.07407407407405,0)" xlink:href="#w"/><use transform="matrix(0.09320987654320984,0,0,0.09320987654320984,113.71604938271602,0)" xlink:href="#x"/><use transform="matrix(0.09320987654320984,0,0,0.09320987654320984,121.0796296296296,0)" xlink:href="#u"/><use transform="matrix(0.09320987654320984,0,0,0.09320987654320984,139.72160493827155,0)" xlink:href="#y"/></g><path fill="#333" d="M233-177c-1 41-23 64-60 70L243 0h-38l-65-103H63V0H30v-248c88 3 205-21 203 71zM63-129c60-2 137 13 137-47 0-61-80-42-137-45v92" id="z"/><path fill="#333" d="M141-36C126-15 110 5 73 4 37 3 15-17 15-53c-1-64 63-63 125-63 3-35-9-54-41-54-24 1-41 7-42 31l-33-3c5-37 33-52 76-52 45 0 72 20 72 64v82c-1 20 7 32 28 27v20c-31 9-61-2-59-35zM48-53c0 20 12 33 32 33 41-3 63-29 60-74-43 2-92-5-92 41" id="A"/><path fill="#333" d="M101-234c-31-9-42 10-38 44h38v23H63V0H32v-167H5v-23h27c-7-52 17-82 69-68v24" id="B"/><path fill="#333" d="M59-47c-2 24 18 29 38 22v24C64 9 27 4 27-40v-127H5v-23h24l9-43h21v43h35v23H59v120" id="C"/><g id="d"><use transform="matrix(0.06172839506172839,0,0,0.06172839506172839,0,0)" xlink:href="#z"/><use transform="matrix(0.06172839506172839,0,0,0.06172839506172839,15.987654320987653,0)" xlink:href="#A"/><use transform="matrix(0.06172839506172839,0,0,0.06172839506172839,28.333333333333332,0)" xlink:href="#B"/><use transform="matrix(0.06172839506172839,0,0,0.06172839506172839,34.50617283950617,0)" xlink:href="#C"/></g><path fill="#333" d="M30 0v-248h33v221h125V0H30" id="D"/><path fill="#333" d="M100-194c62-1 85 37 85 99 1 63-27 99-86 99S16-35 15-95c0-66 28-99 85-99zM99-20c44 1 53-31 53-75 0-43-8-75-51-75s-53 32-53 75 10 74 51 75" id="E"/><path fill="#333" d="M177-190C167-65 218 103 67 71c-23-6-38-20-44-43l32-5c15 47 100 32 89-28v-30C133-14 115 1 83 1 29 1 15-40 15-95c0-56 16-97 71-98 29-1 48 16 59 35 1-10 0-23 2-32h30zM94-22c36 0 50-32 50-73 0-42-14-75-50-75-39 0-46 34-46 75s6 73 46 73" id="F"/><g id="e"><use transform="matrix(0.06172839506172839,0,0,0.06172839506172839,0,0)" xlink:href="#D"/><use transform="matrix(0.06172839506172839,0,0,0.06172839506172839,12.345679012345679,0)" xlink:href="#E"/><use transform="matrix(0.06172839506172839,0,0,0.06172839506172839,24.691358024691358,0)" xlink:href="#F"/></g><path fill="#333" d="M137 0h-34L2-248h35l83 218 83-218h36" id="G"/><path fill="#333" d="M96-169c-40 0-48 33-48 73s9 75 48 75c24 0 41-14 43-38l32 2c-6 37-31 61-74 61-59 0-76-41-82-99-10-93 101-131 147-64 4 7 5 14 7 22l-32 3c-4-21-16-35-41-35" id="H"/><path fill="#333" d="M117-194c89-4 53 116 60 194h-32v-121c0-31-8-49-39-48C34-167 62-67 57 0H25l-1-190h30c1 10-1 24 2 32 11-22 29-35 61-36" id="I"/><g id="f"><use transform="matrix(0.06172839506172839,0,0,0.06172839506172839,0,0)" xlink:href="#G"/><use transform="matrix(0.06172839506172839,0,0,0.06172839506172839,13.148148148148147,0)" xlink:href="#A"/><use transform="matrix(0.06172839506172839,0,0,0.06172839506172839,25.493827160493826,0)" xlink:href="#H"/><use transform="matrix(0.06172839506172839,0,0,0.06172839506172839,36.60493827160494,0)" xlink:href="#A"/><use transform="matrix(0.06172839506172839,0,0,0.06172839506172839,48.95061728395061,0)" xlink:href="#I"/><use transform="matrix(0.06172839506172839,0,0,0.06172839506172839,61.29629629629629,0)" xlink:href="#C"/></g><path fill="#333" d="M190 0L58-211 59 0H30v-248h39L202-35l-2-213h31V0h-41" id="J"/><path fill="#333" d="M85-194c31 0 48 13 60 33l-1-100h32l1 261h-30c-2-10 0-23-3-31C134-8 116 4 85 4 32 4 16-35 15-94c0-66 23-100 70-100zm9 24c-40 0-46 34-46 75 0 40 6 74 45 74 42 0 51-32 51-76 0-42-9-74-50-73" id="K"/><path fill="#333" d="M100-194c63 0 86 42 84 106H49c0 40 14 67 53 68 26 1 43-12 49-29l28 8c-11 28-37 45-77 45C44 4 14-33 15-96c1-61 26-98 85-98zm52 81c6-60-76-77-97-28-3 7-6 17-6 28h103" id="L"/><path fill="#333" d="M135-143c-3-34-86-38-87 0 15 53 115 12 119 90S17 21 10-45l28-5c4 36 97 45 98 0-10-56-113-15-118-90-4-57 82-63 122-42 12 7 21 19 24 35" id="M"/><g id="g"><use transform="matrix(0.06172839506172839,0,0,0.06172839506172839,0,0)" xlink:href="#J"/><use transform="matrix(0.06172839506172839,0,0,0.06172839506172839,15.987654320987653,0)" xlink:href="#E"/><use transform="matrix(0.06172839506172839,0,0,0.06172839506172839,28.333333333333332,0)" xlink:href="#K"/><use transform="matrix(0.06172839506172839,0,0,0.06172839506172839,40.67901234567901,0)" xlink:href="#L"/><use transform="matrix(0.06172839506172839,0,0,0.06172839506172839,53.02469135802469,0)" xlink:href="#M"/></g><path fill="#333" d="M206 0h-36l-40-164L89 0H53L-1-190h32L70-26l43-164h34l41 164 42-164h31" id="N"/><path fill="#333" d="M114-163C36-179 61-72 57 0H25l-1-190h30c1 12-1 29 2 39 6-27 23-49 58-41v29" id="O"/><path fill="#333" d="M143 0L79-87 56-68V0H24v-261h32v163l83-92h37l-77 82L181 0h-38" id="P"/><g id="h"><use transform="matrix(0.06172839506172839,0,0,0.06172839506172839,0,0)" xlink:href="#J"/><use transform="matrix(0.06172839506172839,0,0,0.06172839506172839,15.987654320987653,0)" xlink:href="#L"/><use transform="matrix(0.06172839506172839,0,0,0.06172839506172839,28.333333333333332,0)" xlink:href="#C"/><use transform="matrix(0.06172839506172839,0,0,0.06172839506172839,34.50617283950617,0)" xlink:href="#N"/><use transform="matrix(0.06172839506172839,0,0,0.06172839506172839,50.49382716049382,0)" xlink:href="#E"/><use transform="matrix(0.06172839506172839,0,0,0.06172839506172839,62.8395061728395,0)" xlink:href="#O"/><use transform="matrix(0.06172839506172839,0,0,0.06172839506172839,70.18518518518518,0)" xlink:href="#P"/></g><path fill="#333" d="M212-179c-10-28-35-45-73-45-59 0-87 40-87 99 0 60 29 101 89 101 43 0 62-24 78-52l27 14C228-24 195 4 139 4 59 4 22-46 18-125c-6-104 99-153 187-111 19 9 31 26 39 46" id="Q"/><path fill="#333" d="M84 4C-5 8 30-112 23-190h32v120c0 31 7 50 39 49 72-2 45-101 50-169h31l1 190h-30c-1-10 1-25-2-33-11 22-28 36-60 37" id="R"/><g id="i"><use transform="matrix(0.06172839506172839,0,0,0.06172839506172839,0,0)" xlink:href="#Q"/><use transform="matrix(0.06172839506172839,0,0,0.06172839506172839,15.987654320987653,0)" xlink:href="#E"/><use transform="matrix(0.06172839506172839,0,0,0.06172839506172839,28.333333333333332,0)" xlink:href="#I"/><use transform="matrix(0.06172839506172839,0,0,0.06172839506172839,40.67901234567901,0)" xlink:href="#M"/><use transform="matrix(0.06172839506172839,0,0,0.06172839506172839,51.79012345679013,0)" xlink:href="#L"/><use transform="matrix(0.06172839506172839,0,0,0.06172839506172839,64.13580246913581,0)" xlink:href="#I"/><use transform="matrix(0.06172839506172839,0,0,0.06172839506172839,76.4814814814815,0)" xlink:href="#M"/><use transform="matrix(0.06172839506172839,0,0,0.06172839506172839,87.59259259259261,0)" xlink:href="#R"/><use transform="matrix(0.06172839506172839,0,0,0.06172839506172839,99.9382716049383,0)" xlink:href="#M"/></g><path fill="#333" d="M240 0l2-218c-23 76-54 145-80 218h-23L58-218 59 0H30v-248h44l77 211c21-75 51-140 76-211h43V0h-30" id="S"/><path fill="#333" d="M24 0v-261h32V0H24" id="T"/><g id="j"><use transform="matrix(0.06172839506172839,0,0,0.06172839506172839,0,0)" xlink:href="#S"/><use transform="matrix(0.06172839506172839,0,0,0.06172839506172839,18.456790123456788,0)" xlink:href="#E"/><use transform="matrix(0.06172839506172839,0,0,0.06172839506172839,30.80246913580247,0)" xlink:href="#K"/><use transform="matrix(0.06172839506172839,0,0,0.06172839506172839,43.148148148148145,0)" xlink:href="#R"/><use transform="matrix(0.06172839506172839,0,0,0.06172839506172839,55.49382716049382,0)" xlink:href="#T"/><use transform="matrix(0.06172839506172839,0,0,0.06172839506172839,60.37037037037037,0)" xlink:href="#L"/></g><path fill="#333" d="M30 0v-248h187v28H63v79h144v27H63v87h162V0H30" id="U"/><path fill="#333" d="M141 0L90-78 38 0H4l68-98-65-92h35l48 74 47-74h35l-64 92 68 98h-35" id="V"/><g id="k"><use transform="matrix(0.06172839506172839,0,0,0.06172839506172839,0,0)" xlink:href="#U"/><use transform="matrix(0.06172839506172839,0,0,0.06172839506172839,14.814814814814813,0)" xlink:href="#V"/><use transform="matrix(0.06172839506172839,0,0,0.06172839506172839,25.925925925925924,0)" xlink:href="#L"/><use transform="matrix(0.06172839506172839,0,0,0.06172839506172839,38.2716049382716,0)" xlink:href="#H"/><use transform="matrix(0.06172839506172839,0,0,0.06172839506172839,49.38271604938271,0)" xlink:href="#R"/><use transform="matrix(0.06172839506172839,0,0,0.06172839506172839,61.728395061728385,0)" xlink:href="#C"/><use transform="matrix(0.06172839506172839,0,0,0.06172839506172839,67.90123456790123,0)" xlink:href="#E"/><use transform="matrix(0.06172839506172839,0,0,0.06172839506172839,80.24691358024691,0)" xlink:href="#O"/></g><path fill="#333" d="M30-248c87 1 191-15 191 75 0 78-77 80-158 76V0H30v-248zm33 125c57 0 124 11 124-50 0-59-68-47-124-48v98" id="W"/><g id="l"><use transform="matrix(0.06172839506172839,0,0,0.06172839506172839,0,0)" xlink:href="#W"/><use transform="matrix(0.06172839506172839,0,0,0.06172839506172839,14.814814814814813,0)" xlink:href="#O"/><use transform="matrix(0.06172839506172839,0,0,0.06172839506172839,22.160493827160494,0)" xlink:href="#E"/><use transform="matrix(0.06172839506172839,0,0,0.06172839506172839,34.50617283950617,0)" xlink:href="#H"/><use transform="matrix(0.06172839506172839,0,0,0.06172839506172839,45.61728395061728,0)" xlink:href="#L"/><use transform="matrix(0.06172839506172839,0,0,0.06172839506172839,57.962962962962955,0)" xlink:href="#M"/><use transform="matrix(0.06172839506172839,0,0,0.06172839506172839,69.07407407407406,0)" xlink:href="#M"/></g><path fill="#333" d="M127-220V0H93v-220H8v-28h204v28h-85" id="X"/><path fill="#333" d="M115-194c53 0 69 39 70 98 0 66-23 100-70 100C84 3 66-7 56-30L54 0H23l1-261h32v101c10-23 28-34 59-34zm-8 174c40 0 45-34 45-75 0-40-5-75-45-74-42 0-51 32-51 76 0 43 10 73 51 73" id="Y"/><g id="m"><use transform="matrix(0.06172839506172839,0,0,0.06172839506172839,0,0)" xlink:href="#X"/><use transform="matrix(0.06172839506172839,0,0,0.06172839506172839,11.049382716049381,0)" xlink:href="#A"/><use transform="matrix(0.06172839506172839,0,0,0.06172839506172839,23.39506172839506,0)" xlink:href="#Y"/><use transform="matrix(0.06172839506172839,0,0,0.06172839506172839,35.74074074074074,0)" xlink:href="#T"/><use transform="matrix(0.06172839506172839,0,0,0.06172839506172839,40.617283950617285,0)" xlink:href="#L"/></g></defs></g></svg>